<svg xmlns="http://www.w3.org/2000/svg" viewBox="0 0 864 116.5112">
  <title>fisd-logo-reverse-rgb</title>
  <g id="white-rgb">
    <g>
      <path id="fullLogo" d="M322.0583,81.7694H288.2039v33.5765h-16.205V34.54h55.72V47.0275H288.2039V69.2823h33.8544Z" style="fill: #fff"/>
      <path id="fullLogo-2" data-name="fullLogo" d="M353.8029,83.0462v32.3H337.5977V34.54h30.4684q13.8189,0,21.6168,6.2988,7.7967,6.3,7.7972,17.5654a17.79,17.79,0,0,1-3.2741,10.7662,22.8943,22.8943,0,0,1-9.6014,7.2711q7.1594,2.11,10.2952,7.0483a22.3542,22.3542,0,0,1,3.1353,12.2089v5.9391a29.387,29.387,0,0,0,.9156,7.0753,9.7281,9.7281,0,0,0,3.1359,5.467v1.1654H385.3817q-2.22-1.7752-2.8862-5.9382a49.9633,49.9633,0,0,1-.6655-7.881V95.8106q0-6.0487-3.3026-9.4071t-9.296-3.3573Zm0-12.4871h13.9859q6.8262,0,10.1841-2.8862t3.3573-8.5471a11.7653,11.7653,0,0,0-3.3573-8.8243q-3.3589-3.273-9.9068-3.274H353.8029Z" style="fill: #fff"/>
      <path id="fullLogo-3" data-name="fullLogo" d="M429.947,115.3459H413.7414V34.54H429.947Z" style="fill: #fff"/>
      <path id="fullLogo-4" data-name="fullLogo" d="M489.7188,94.2564a9.38,9.38,0,0,0-3.3022-7.4922q-3.3023-2.83-11.5713-5.3274-14.4309-4.1634-21.8108-9.8791-7.3821-5.7157-7.3812-15.6506t8.4632-16.2332q8.4627-6.2988,21.6168-6.2988,13.3194,0,21.7,7.0753t8.1031,17.4548l-.111.3326H489.7188a11.7912,11.7912,0,0,0-3.7462-9.0736q-3.7459-3.4687-10.517-3.4688-6.4933,0-10.045,2.8862a9.0907,9.0907,0,0,0-3.5517,7.3807,7.9188,7.9188,0,0,0,3.8014,6.7429q3.8011,2.637,13.1255,5.5785,13.3743,3.7176,20.2566,9.8229t6.8819,16.0393a19.2079,19.2079,0,0,1-8.1859,16.3718q-8.187,5.9929-21.6168,5.9935a39.4585,39.4585,0,0,1-23.0318-6.7981q-9.8235-6.7977-9.5456-19.0642l.111-.3325h15.7615q0,7.215,4.4122,10.5724t12.2927,3.3573q6.6039,0,10.1007-2.7194A8.74,8.74,0,0,0,489.7188,94.2564Z" style="fill: #fff"/>
      <path id="fullLogo-5" data-name="fullLogo" d="M579.1818,87.819l.1115.3326q.22,13.042-7.9644,20.7006-8.187,7.6595-22.7264,7.659-14.5973,0-23.6979-9.3789-9.103-9.3789-9.1016-24.1424V66.9516q0-14.7072,8.88-24.1424t23.087-9.4341q14.9847,0,23.4206,7.6861,8.4355,7.6881,8.2136,20.9508l-.1105.3325H563.5312q0-7.9911-3.8289-12.237T547.77,45.8622a13.52,13.52,0,0,0-11.5432,5.905q-4.2744,5.9055-4.2735,15.0528V82.9548q0,9.26,4.4955,15.1653a14.4751,14.4751,0,0,0,12.1541,5.9039q7.6023,0,11.2383-4.0786,3.6339-4.0791,3.6352-12.1264Z" style="fill: #fff"/>
      <path id="fullLogo-6" data-name="fullLogo" d="M655.8252,82.2134q0,14.8745-9.4071,24.5854-9.4072,9.7134-24.4467,9.7124-14.93,0-24.2529-9.7124-9.3244-9.7105-9.3236-24.5854v-14.54q0-14.8188,9.2955-24.5583t24.2248-9.7395q15.04,0,24.4749,9.74t9.4351,24.5583Zm-16.2061-14.61q0-9.4525-4.7166-15.5138t-12.9873-6.0618q-8.27,0-12.82,6.0346-4.5524,6.0321-4.5508,15.541V82.2827q0,9.62,4.606,15.6806,4.6067,6.0623,12.8206,6.0607,8.3241,0,12.9864-6.0607,4.6608-6.0606,4.6613-15.6806Z" style="fill: #fff"/>
      <path id="fullLogo-7" data-name="fullLogo" d="M713.9871,115.3459H697.782V34.54h16.2051Z" style="fill: #fff"/>
      <path id="fullLogo-8" data-name="fullLogo" d="M773.7594,94.2564a9.3838,9.3838,0,0,0-3.3021-7.4922q-3.3032-2.83-11.572-5.3274-14.43-4.1634-21.8106-9.8791-7.3822-5.7157-7.3818-15.6506t8.4638-16.2332q8.4625-6.2988,21.6167-6.2988,13.32,0,21.7,7.0753,8.3784,7.0764,8.1021,17.4548l-.1105.3326H773.7594a11.7908,11.7908,0,0,0-3.7462-9.0736q-3.7459-3.4687-10.517-3.4688-6.4932,0-10.0459,2.8862a9.0914,9.0914,0,0,0-3.5513,7.3807A7.9188,7.9188,0,0,0,749.7,62.7052q3.8,2.637,13.125,5.5785,13.3752,3.7176,20.2576,9.8229,6.88,6.1059,6.8815,16.0393a19.206,19.206,0,0,1-8.1865,16.3718q-8.1869,5.9929-21.6157,5.9935a39.4589,39.4589,0,0,1-23.0324-6.7981q-9.8234-6.7977-9.5456-19.0642l.1115-.3325h15.7611q0,7.215,4.4122,10.5724t12.2932,3.3573q6.603,0,10.1-2.7194A8.7424,8.7424,0,0,0,773.7594,94.2564Z" style="fill: #fff"/>
      <path id="fullLogo-9" data-name="fullLogo" d="M802.23,115.3459V34.54h27.75q14.8173,0,24.4187,9.4623T864,68.2837V81.6579q0,14.8745-9.6019,24.281t-24.4187,9.407Zm16.2061-68.3184v55.8312h10.711q8.7129,0,13.6524-5.8768t4.94-15.3583V68.1511q0-9.3684-4.94-15.2457t-13.6524-5.8779Z" style="fill: #fff"/>
      <path id="fullLogo-10" data-name="fullLogo" d="M251.57,113.9385l-52.1013-7.6346L224.5537,91.96a.6575.6575,0,0,0-.3264-1.2283H195.3135l41.3328-32.578a.6578.6578,0,0,0-.65-1.1278l-48.91,19.3929,14.54-24.9927a.6577.6577,0,0,0-.8978-.9L175.743,64.9873,195.14,16.1546a.6578.6578,0,0,0-1.1269-.6513L161.434,56.6144l.065-28.9555a.6576.6576,0,0,0-1.2274-.33L151.52,42.5229l0-6.8665a1.3141,1.3141,0,0,0-1.3149-1.3152H143.19L138.1926.5613a.6572.6572,0,0,0-.65-.5613h-.0006a.6578.6578,0,0,0-.65.56l-5.0743,33.7814H118.98l-4.0922-7.2255a.6576.6576,0,0,0-1.23.32l-.0453,6.9058H96.1017L81.21,15.4255a.6574.6574,0,0,0-1.1293.6452l7.1107,18.2705H1.3152a1.3151,1.3151,0,0,0-.7823,2.3723L22.4563,52.9407V96.6476L.5329,112.8747a1.3149,1.3149,0,0,0,.7823,2.372H98.4019a.6576.6576,0,0,0,.6575-.6577,38.11,38.11,0,1,1,76.22,0,.6579.6579,0,0,0,.6578.6577H251.474a.6576.6576,0,0,0,.0956-1.3082ZM92.3718,60.7828,73.9831,49.9737a.6575.6575,0,0,0-.9042.8926l8.263,14.4906H71.7061v-16.13H92.9847l3.5462,9.1115ZM79.23,90.6362l-7.5235-.055V84.5993ZM113.4682,56.4l-5.6475-7.1732h5.6946ZM24.5539,98.3673a1.3156,1.3156,0,0,0,.5328-1.0571V52.278a1.3157,1.3157,0,0,0-.5328-1.0571L5.3028,36.9716H148.89l-.0018,31.656L120.83,46.872a1.315,1.315,0,0,0-.8059-.2759H70.3909a1.3152,1.3152,0,0,0-1.3152,1.3152V66.6721a1.3152,1.3152,0,0,0,1.3152,1.3152H84.9485a1.3168,1.3168,0,0,0,.6664-.1812l16.7887-9.8692.0129,31.2748L85.0915,79.304a1.3116,1.3116,0,0,0-.6528-.1737H70.3909a1.3152,1.3152,0,0,0-1.3152,1.3152V97.31a1.3156,1.3156,0,0,0,.5328,1.0571l19.252,14.25H5.3028Z" style="fill: #fff"/>
      <path id="fullLogo-11" data-name="fullLogo" d="M237.9789,104.3994a3.7527,3.7527,0,0,1,.4533-1.817,3.3935,3.3935,0,0,1,1.254-1.32,3.3473,3.3473,0,0,1,3.4609,0,3.4085,3.4085,0,0,1,1.2528,1.32,3.8742,3.8742,0,0,1,.0164,3.6035,3.4469,3.4469,0,0,1-1.2375,1.34,3.32,3.32,0,0,1-3.517.0049,3.4517,3.4517,0,0,1-1.2424-1.3344,3.7939,3.7939,0,0,1-.44-1.7969m.5569-.0024a3.1607,3.1607,0,0,0,.3875,1.5409,2.8829,2.8829,0,0,0,1.0535,1.1114,2.7778,2.7778,0,0,0,2.8894-.0073,2.9016,2.9016,0,0,0,1.0493-1.1108,3.2722,3.2722,0,0,0,0-3.0618,2.8678,2.8678,0,0,0-1.0493-1.1028,2.804,2.804,0,0,0-2.8918-.0049,2.8519,2.8519,0,0,0-1.0535,1.1053,3.1454,3.1454,0,0,0-.3851,1.53m2.17.3656V106.4h-.683v-4.1123H241.36a1.8442,1.8442,0,0,1,1.15.3169,1.0984,1.0984,0,0,1,.41.9231.9864.9864,0,0,1-.62.91.9663.9663,0,0,1,.5959.9877v.2961a1.5846,1.5846,0,0,0,.0822.6v.078h-.7025a1.946,1.946,0,0,1-.0676-.6221,5.0256,5.0256,0,0,0-.0147-.5313q-.0777-.4644-.6349-.4838Zm0-.62h.7556a.9648.9648,0,0,0,.5617-.1682.5.5,0,0,0,.2133-.42.5952.5952,0,0,0-.1895-.499,1.1329,1.1329,0,0,0-.6727-.1469h-.6684Z" style="fill: #fff"/>
    </g>
  </g>
</svg>
